<svg width="22" height="17" viewBox="0 0 22 17" fill="none" xmlns="http://www.w3.org/2000/svg">
<path d="M1.06202 8.66013C0.978677 8.43561 0.978677 8.18864 1.06202 7.96413C1.87372 5.99598 3.25153 4.31317 5.02079 3.12903C6.79004 1.94489 8.87106 1.31274 11 1.31274C13.129 1.31274 15.21 1.94489 16.9792 3.12903C18.7485 4.31317 20.1263 5.99598 20.938 7.96413C21.0214 8.18864 21.0214 8.43561 20.938 8.66013C20.1263 10.6283 18.7485 12.3111 16.9792 13.4952C15.21 14.6794 13.129 15.3115 11 15.3115C8.87106 15.3115 6.79004 14.6794 5.02079 13.4952C3.25153 12.3111 1.87372 10.6283 1.06202 8.66013Z" stroke="black" stroke-opacity="0.5" stroke-width="2" stroke-linecap="round" stroke-linejoin="round"/>
<path d="M11 11.3121C12.6569 11.3121 14 9.96898 14 8.31213C14 6.65527 12.6569 5.31213 11 5.31213C9.34316 5.31213 8.00002 6.65527 8.00002 8.31213C8.00002 9.96898 9.34316 11.3121 11 11.3121Z" stroke="black" stroke-opacity="0.5" stroke-width="2" stroke-linecap="round" stroke-linejoin="round"/>
</svg>
