<svg width="213" height="42" viewBox="0 0 213 42" fill="none" xmlns="http://www.w3.org/2000/svg">
<g clip-path="url(#clip0_858_61)">
<path d="M20.656 4.47518C29.7859 4.47518 37.1807 11.87 37.1807 21C37.1807 30.1299 29.7859 37.5247 20.656 37.5247C11.526 37.5247 4.13119 30.1299 4.13119 21C4.13119 11.87 11.526 4.47518 20.656 4.47518ZM20.656 0.343994C9.25387 0.343994 0 9.59786 0 21C0 32.402 9.25387 41.6559 20.656 41.6559C32.058 41.6559 41.3119 32.402 41.3119 21C41.3119 9.59786 32.058 0.343994 20.656 0.343994Z" fill="#1E1E1E"/>
<path d="M15.9878 11.5808L30.4056 20.9173L15.9878 30.2538V11.5808Z" fill="#864AF9"/>
<path d="M57.768 31.2197L49.312 11.6197H54.212L61.604 28.9797H58.72L66.224 11.6197H70.732L62.248 31.2197H57.768ZM78.5285 31.5557C76.9605 31.5557 75.4578 31.3504 74.0205 30.9397C72.5831 30.5104 71.4258 29.9597 70.5485 29.2877L72.0885 25.8717C72.9285 26.4691 73.9178 26.9637 75.0565 27.3557C76.2138 27.7291 77.3805 27.9157 78.5565 27.9157C79.4525 27.9157 80.1711 27.8317 80.7125 27.6637C81.2725 27.4771 81.6831 27.2251 81.9445 26.9077C82.2058 26.5904 82.3365 26.2264 82.3365 25.8157C82.3365 25.2931 82.1311 24.8824 81.7205 24.5837C81.3098 24.2664 80.7685 24.0144 80.0965 23.8277C79.4245 23.6224 78.6778 23.4357 77.8565 23.2677C77.0538 23.0811 76.2418 22.8571 75.4205 22.5957C74.6178 22.3344 73.8805 21.9984 73.2085 21.5877C72.5365 21.1771 71.9858 20.6357 71.5565 19.9637C71.1458 19.2917 70.9405 18.4331 70.9405 17.3877C70.9405 16.2677 71.2391 15.2504 71.8365 14.3357C72.4525 13.4024 73.3671 12.6651 74.5805 12.1237C75.8125 11.5637 77.3525 11.2837 79.2005 11.2837C80.4325 11.2837 81.6458 11.4331 82.8405 11.7317C84.0351 12.0117 85.0898 12.4411 86.0045 13.0197L84.6045 16.4637C83.6898 15.9411 82.7751 15.5584 81.8605 15.3157C80.9458 15.0544 80.0498 14.9237 79.1725 14.9237C78.2951 14.9237 77.5765 15.0264 77.0165 15.2317C76.4565 15.4371 76.0551 15.7077 75.8125 16.0437C75.5698 16.3611 75.4485 16.7344 75.4485 17.1637C75.4485 17.6677 75.6538 18.0784 76.0645 18.3957C76.4751 18.6944 77.0165 18.9371 77.6885 19.1237C78.3605 19.3104 79.0978 19.4971 79.9005 19.6837C80.7218 19.8704 81.5338 20.0851 82.3365 20.3277C83.1578 20.5704 83.9045 20.8971 84.5765 21.3077C85.2485 21.7184 85.7898 22.2597 86.2005 22.9317C86.6298 23.6037 86.8445 24.4531 86.8445 25.4797C86.8445 26.5811 86.5365 27.5891 85.9205 28.5037C85.3045 29.4184 84.3805 30.1557 83.1485 30.7157C81.9351 31.2757 80.3951 31.5557 78.5285 31.5557ZM89.6639 31.2197V11.6197H94.1999V27.5237H104.028V31.2197H89.6639Z" fill="#864AF9"/>
<path d="M106.282 31.2198V11.6198H110.034L118.378 25.4518H116.39L124.594 11.6198H128.318L128.374 31.2198H124.118L124.09 18.1438H124.874L118.322 29.1478H116.278L109.586 18.1438H110.538V31.2198H106.282ZM141.676 31.2198V28.2798L141.396 27.6358V22.3718C141.396 21.4385 141.107 20.7105 140.528 20.1878C139.968 19.6652 139.1 19.4038 137.924 19.4038C137.122 19.4038 136.328 19.5345 135.544 19.7958C134.779 20.0385 134.126 20.3745 133.584 20.8038L132.016 17.7518C132.838 17.1732 133.827 16.7252 134.984 16.4078C136.142 16.0905 137.318 15.9318 138.512 15.9318C140.808 15.9318 142.591 16.4732 143.86 17.5558C145.13 18.6385 145.764 20.3278 145.764 22.6238V31.2198H141.676ZM137.084 31.4438C135.908 31.4438 134.9 31.2478 134.06 30.8558C133.22 30.4452 132.576 29.8945 132.128 29.2038C131.68 28.5132 131.456 27.7385 131.456 26.8798C131.456 25.9838 131.671 25.1998 132.1 24.5278C132.548 23.8558 133.248 23.3332 134.2 22.9598C135.152 22.5678 136.394 22.3718 137.924 22.3718H141.928V24.9198H138.4C137.374 24.9198 136.664 25.0878 136.272 25.4238C135.899 25.7598 135.712 26.1798 135.712 26.6838C135.712 27.2438 135.927 27.6918 136.356 28.0278C136.804 28.3452 137.411 28.5038 138.176 28.5038C138.904 28.5038 139.558 28.3358 140.136 27.9998C140.715 27.6452 141.135 27.1318 141.396 26.4598L142.068 28.4758C141.751 29.4465 141.172 30.1838 140.332 30.6878C139.492 31.1918 138.41 31.4438 137.084 31.4438ZM153.05 28.1398L153.162 22.8198L160.19 16.1558H165.398L158.65 23.0158L156.382 24.8638L153.05 28.1398ZM149.438 31.2198V10.4438H153.806V31.2198H149.438ZM160.666 31.2198L155.57 24.8918L158.314 21.5038L165.958 31.2198H160.666ZM174.489 31.4438C172.772 31.4438 171.26 31.1078 169.953 30.4358C168.665 29.7638 167.667 28.8492 166.957 27.6918C166.248 26.5158 165.893 25.1812 165.893 23.6878C165.893 22.1758 166.239 20.8412 166.929 19.6838C167.639 18.5078 168.6 17.5932 169.813 16.9398C171.027 16.2678 172.399 15.9318 173.929 15.9318C175.404 15.9318 176.729 16.2492 177.905 16.8838C179.1 17.4998 180.043 18.3958 180.733 19.5718C181.424 20.7292 181.769 22.1198 181.769 23.7438C181.769 23.9118 181.76 24.1078 181.741 24.3318C181.723 24.5372 181.704 24.7332 181.685 24.9198H169.449V22.3718H179.389L177.709 23.1278C177.709 22.3438 177.551 21.6625 177.233 21.0838C176.916 20.5052 176.477 20.0572 175.917 19.7398C175.357 19.4038 174.704 19.2358 173.957 19.2358C173.211 19.2358 172.548 19.4038 171.969 19.7398C171.409 20.0572 170.971 20.5145 170.653 21.1118C170.336 21.6905 170.177 22.3812 170.177 23.1838V23.8558C170.177 24.6772 170.355 25.4052 170.709 26.0398C171.083 26.6558 171.596 27.1318 172.249 27.4678C172.921 27.7852 173.705 27.9438 174.601 27.9438C175.404 27.9438 176.104 27.8225 176.701 27.5798C177.317 27.3372 177.877 26.9732 178.381 26.4878L180.705 29.0078C180.015 29.7918 179.147 30.3985 178.101 30.8278C177.056 31.2385 175.852 31.4438 174.489 31.4438ZM184.397 31.2198V16.1558H188.569V20.4118L187.981 19.1798C188.429 18.1158 189.148 17.3132 190.137 16.7718C191.127 16.2118 192.331 15.9318 193.749 15.9318V19.9638C193.563 19.9452 193.395 19.9358 193.245 19.9358C193.096 19.9172 192.937 19.9078 192.769 19.9078C191.575 19.9078 190.604 20.2532 189.857 20.9438C189.129 21.6158 188.765 22.6705 188.765 24.1078V31.2198H184.397ZM196.256 31.3478C195.829 31.3478 195.461 31.2038 195.152 30.9158C194.853 30.6172 194.704 30.2385 194.704 29.7798C194.704 29.3212 194.853 28.9532 195.152 28.6758C195.461 28.3878 195.829 28.2438 196.256 28.2438C196.693 28.2438 197.061 28.3878 197.36 28.6758C197.658 28.9532 197.808 29.3212 197.808 29.7798C197.808 30.2385 197.658 30.6172 197.36 30.9158C197.061 31.2038 196.693 31.3478 196.256 31.3478ZM199.339 31.2198V22.6118H201.835V31.2198H199.339ZM200.587 21.4118C200.129 21.4118 199.755 21.2785 199.467 21.0118C199.179 20.7452 199.035 20.4145 199.035 20.0198C199.035 19.6252 199.179 19.2945 199.467 19.0278C199.755 18.7612 200.129 18.6278 200.587 18.6278C201.046 18.6278 201.419 18.7558 201.707 19.0118C201.995 19.2572 202.139 19.5772 202.139 19.9718C202.139 20.3878 201.995 20.7345 201.707 21.0118C201.43 21.2785 201.057 21.4118 200.587 21.4118ZM208.088 31.3478C207.17 31.3478 206.354 31.1558 205.64 30.7718C204.936 30.3878 204.376 29.8652 203.96 29.2038C203.554 28.5318 203.352 27.7692 203.352 26.9158C203.352 26.0518 203.554 25.2892 203.96 24.6278C204.376 23.9558 204.936 23.4332 205.64 23.0598C206.354 22.6758 207.17 22.4838 208.088 22.4838C208.994 22.4838 209.805 22.6758 210.52 23.0598C211.234 23.4332 211.794 23.9505 212.2 24.6118C212.605 25.2732 212.808 26.0412 212.808 26.9158C212.808 27.7692 212.605 28.5318 212.2 29.2038C211.794 29.8652 211.234 30.3878 210.52 30.7718C209.805 31.1558 208.994 31.3478 208.088 31.3478ZM208.088 29.2998C208.504 29.2998 208.877 29.2038 209.208 29.0118C209.538 28.8198 209.8 28.5478 209.992 28.1958C210.184 27.8332 210.28 27.4065 210.28 26.9158C210.28 26.4145 210.184 25.9878 209.992 25.6358C209.8 25.2838 209.538 25.0118 209.208 24.8198C208.877 24.6278 208.504 24.5318 208.088 24.5318C207.672 24.5318 207.298 24.6278 206.968 24.8198C206.637 25.0118 206.37 25.2838 206.168 25.6358C205.976 25.9878 205.88 26.4145 205.88 26.9158C205.88 27.4065 205.976 27.8332 206.168 28.1958C206.37 28.5478 206.637 28.8198 206.968 29.0118C207.298 29.2038 207.672 29.2998 208.088 29.2998Z" fill="#1E1E1E"/>
</g>
<defs>
<clipPath id="clip0_858_61">
<rect width="212.808" height="41.3119" fill="white" transform="translate(0 0.343994)"/>
</clipPath>
</defs>
</svg>
