<svg width="279" height="42" viewBox="0 0 279 42" fill="none" xmlns="http://www.w3.org/2000/svg">
<path d="M20.656 4.13119C29.7859 4.13119 37.1807 11.526 37.1807 20.656C37.1807 29.7859 29.7859 37.1807 20.656 37.1807C11.526 37.1807 4.13119 29.7859 4.13119 20.656C4.13119 11.526 11.526 4.13119 20.656 4.13119ZM20.656 0C9.25387 0 0 9.25387 0 20.656C0 32.058 9.25387 41.3119 20.656 41.3119C32.058 41.3119 41.3119 32.058 41.3119 20.656C41.3119 9.25387 32.058 0 20.656 0Z" fill="white"/>
<path d="M15.9877 11.2368L30.4055 20.5733L15.9877 29.9098V11.2368Z" fill="#864AF9"/>
<path d="M61.0159 30.9919C59.5039 30.9919 58.0946 30.7493 56.7879 30.2639C55.4999 29.7599 54.3799 29.0506 53.4279 28.1359C52.4759 27.2213 51.7292 26.1479 51.1879 24.9159C50.6652 23.6839 50.4039 22.3306 50.4039 20.8559C50.4039 19.3813 50.6652 18.0279 51.1879 16.7959C51.7292 15.5639 52.4759 14.4906 53.4279 13.5759C54.3986 12.6613 55.5279 11.9613 56.8159 11.4759C58.1039 10.9719 59.5132 10.7199 61.0439 10.7199C62.7426 10.7199 64.2732 11.0186 65.6359 11.6159C67.0172 12.1946 68.1746 13.0533 69.1079 14.1919L66.1959 16.8799C65.5239 16.1146 64.7772 15.5453 63.9559 15.1719C63.1346 14.7799 62.2386 14.5839 61.2679 14.5839C60.3532 14.5839 59.5132 14.7333 58.7479 15.0319C57.9826 15.3306 57.3199 15.7599 56.7599 16.3199C56.1999 16.8799 55.7612 17.5426 55.4439 18.3079C55.1452 19.0733 54.9959 19.9226 54.9959 20.8559C54.9959 21.7893 55.1452 22.6386 55.4439 23.4039C55.7612 24.1693 56.1999 24.8319 56.7599 25.3919C57.3199 25.9519 57.9826 26.3813 58.7479 26.6799C59.5132 26.9786 60.3532 27.1279 61.2679 27.1279C62.2386 27.1279 63.1346 26.9413 63.9559 26.5679C64.7772 26.1759 65.5239 25.5879 66.1959 24.8039L69.1079 27.4919C68.1746 28.6306 67.0172 29.4986 65.6359 30.0959C64.2732 30.6933 62.7332 30.9919 61.0159 30.9919ZM71.583 30.6559V15.5919H75.755V19.8479L75.167 18.6159C75.615 17.5519 76.3337 16.7493 77.323 16.2079C78.3124 15.6479 79.5164 15.3679 80.935 15.3679V19.3999C80.7484 19.3813 80.5804 19.3719 80.431 19.3719C80.2817 19.3533 80.123 19.3439 79.955 19.3439C78.7604 19.3439 77.7897 19.6893 77.043 20.3799C76.315 21.0519 75.951 22.1066 75.951 23.5439V30.6559H71.583ZM90.6189 30.8799C88.9016 30.8799 87.3896 30.5439 86.0829 29.8719C84.7949 29.1999 83.7962 28.2853 83.0869 27.1279C82.3776 25.9519 82.0229 24.6173 82.0229 23.1239C82.0229 21.6119 82.3682 20.2773 83.0589 19.1199C83.7682 17.9439 84.7296 17.0293 85.9429 16.3759C87.1562 15.7039 88.5282 15.3679 90.0589 15.3679C91.5336 15.3679 92.8589 15.6853 94.0349 16.3199C95.2296 16.9359 96.1722 17.8319 96.8629 19.0079C97.5536 20.1653 97.8989 21.5559 97.8989 23.1799C97.8989 23.3479 97.8896 23.5439 97.8709 23.7679C97.8522 23.9733 97.8336 24.1693 97.8149 24.3559H85.5789V21.8079H95.5189L93.8389 22.5639C93.8389 21.7799 93.6802 21.0986 93.3629 20.5199C93.0456 19.9413 92.6069 19.4933 92.0469 19.1759C91.4869 18.8399 90.8336 18.6719 90.0869 18.6719C89.3402 18.6719 88.6776 18.8399 88.0989 19.1759C87.5389 19.4933 87.1002 19.9506 86.7829 20.5479C86.4656 21.1266 86.3069 21.8173 86.3069 22.6199V23.2919C86.3069 24.1133 86.4842 24.8413 86.8389 25.4759C87.2122 26.0919 87.7256 26.5679 88.3789 26.9039C89.0509 27.2213 89.8349 27.3799 90.7309 27.3799C91.5336 27.3799 92.2336 27.2586 92.8309 27.0159C93.4469 26.7733 94.0069 26.4093 94.5109 25.9239L96.8349 28.4439C96.1442 29.2279 95.2762 29.8346 94.2309 30.2639C93.1856 30.6746 91.9816 30.8799 90.6189 30.8799ZM109.357 30.6559V27.7159L109.077 27.0719V21.8079C109.077 20.8746 108.787 20.1466 108.209 19.6239C107.649 19.1013 106.781 18.8399 105.605 18.8399C104.802 18.8399 104.009 18.9706 103.225 19.2319C102.459 19.4746 101.806 19.8106 101.265 20.2399L99.6968 17.1879C100.518 16.6093 101.507 16.1613 102.665 15.8439C103.822 15.5266 104.998 15.3679 106.193 15.3679C108.489 15.3679 110.271 15.9093 111.541 16.9919C112.81 18.0746 113.445 19.7639 113.445 22.0599V30.6559H109.357ZM104.765 30.8799C103.589 30.8799 102.581 30.6839 101.741 30.2919C100.901 29.8813 100.257 29.3306 99.8088 28.6399C99.3608 27.9493 99.1368 27.1746 99.1368 26.3159C99.1368 25.4199 99.3515 24.6359 99.7808 23.9639C100.229 23.2919 100.929 22.7693 101.881 22.3959C102.833 22.0039 104.074 21.8079 105.605 21.8079H109.609V24.3559H106.081C105.054 24.3559 104.345 24.5239 103.953 24.8599C103.579 25.1959 103.393 25.6159 103.393 26.1199C103.393 26.6799 103.607 27.1279 104.037 27.4639C104.485 27.7813 105.091 27.9399 105.857 27.9399C106.585 27.9399 107.238 27.7719 107.817 27.4359C108.395 27.0813 108.815 26.5679 109.077 25.8959L109.749 27.9119C109.431 28.8826 108.853 29.6199 108.013 30.1239C107.173 30.6279 106.09 30.8799 104.765 30.8799ZM123.278 30.8799C121.505 30.8799 120.123 30.4319 119.134 29.5359C118.145 28.6213 117.65 27.2679 117.65 25.4759V12.2599H122.018V25.4199C122.018 26.0546 122.186 26.5493 122.522 26.9039C122.858 27.2399 123.315 27.4079 123.894 27.4079C124.585 27.4079 125.173 27.2213 125.658 26.8479L126.834 29.9279C126.386 30.2453 125.845 30.4879 125.21 30.6559C124.594 30.8053 123.95 30.8799 123.278 30.8799ZM115.326 19.2879V15.9279H125.77V19.2879H115.326ZM129.006 30.6559V15.5919H133.374V30.6559H129.006ZM131.19 13.4919C130.387 13.4919 129.734 13.2586 129.23 12.7919C128.726 12.3253 128.474 11.7466 128.474 11.0559C128.474 10.3653 128.726 9.78661 129.23 9.31994C129.734 8.85328 130.387 8.61994 131.19 8.61994C131.993 8.61994 132.646 8.84394 133.15 9.29194C133.654 9.72128 133.906 10.2813 133.906 10.9719C133.906 11.6999 133.654 12.3066 133.15 12.7919C132.665 13.2586 132.011 13.4919 131.19 13.4919ZM141.236 30.6559L134.908 15.5919H139.416L144.68 28.5559H142.44L147.9 15.5919H152.1L145.744 30.6559H141.236ZM160.668 30.8799C158.951 30.8799 157.439 30.5439 156.132 29.8719C154.844 29.1999 153.845 28.2853 153.136 27.1279C152.427 25.9519 152.072 24.6173 152.072 23.1239C152.072 21.6119 152.417 20.2773 153.108 19.1199C153.817 17.9439 154.779 17.0293 155.992 16.3759C157.205 15.7039 158.577 15.3679 160.108 15.3679C161.583 15.3679 162.908 15.6853 164.084 16.3199C165.279 16.9359 166.221 17.8319 166.912 19.0079C167.603 20.1653 167.948 21.5559 167.948 23.1799C167.948 23.3479 167.939 23.5439 167.92 23.7679C167.901 23.9733 167.883 24.1693 167.864 24.3559H155.628V21.8079H165.568L163.888 22.5639C163.888 21.7799 163.729 21.0986 163.412 20.5199C163.095 19.9413 162.656 19.4933 162.096 19.1759C161.536 18.8399 160.883 18.6719 160.136 18.6719C159.389 18.6719 158.727 18.8399 158.148 19.1759C157.588 19.4933 157.149 19.9506 156.832 20.5479C156.515 21.1266 156.356 21.8173 156.356 22.6199V23.2919C156.356 24.1133 156.533 24.8413 156.888 25.4759C157.261 26.0919 157.775 26.5679 158.428 26.9039C159.1 27.2213 159.884 27.3799 160.78 27.3799C161.583 27.3799 162.283 27.2586 162.88 27.0159C163.496 26.7733 164.056 26.4093 164.56 25.9239L166.884 28.4439C166.193 29.2279 165.325 29.8346 164.28 30.2639C163.235 30.6746 162.031 30.8799 160.668 30.8799Z" fill="#864AF9"/>
<path d="M170.884 30.6559V11.0559H174.636L182.98 24.8879H180.992L189.196 11.0559H192.92L192.976 30.6559H188.72L188.692 17.5799H189.476L182.924 28.5839H180.88L174.188 17.5799H175.14V30.6559H170.884ZM206.278 30.6559V27.7159L205.998 27.0719V21.8079C205.998 20.8746 205.709 20.1466 205.13 19.6239C204.57 19.1013 203.702 18.8399 202.526 18.8399C201.724 18.8399 200.93 18.9706 200.146 19.2319C199.381 19.4746 198.728 19.8106 198.186 20.2399L196.618 17.1879C197.44 16.6093 198.429 16.1613 199.586 15.8439C200.744 15.5266 201.92 15.3679 203.114 15.3679C205.41 15.3679 207.193 15.9093 208.462 16.9919C209.732 18.0746 210.366 19.7639 210.366 22.0599V30.6559H206.278ZM201.686 30.8799C200.51 30.8799 199.502 30.6839 198.662 30.2919C197.822 29.8813 197.178 29.3306 196.73 28.6399C196.282 27.9493 196.058 27.1746 196.058 26.3159C196.058 25.4199 196.273 24.6359 196.702 23.9639C197.15 23.2919 197.85 22.7693 198.802 22.3959C199.754 22.0039 200.996 21.8079 202.526 21.8079H206.53V24.3559H203.002C201.976 24.3559 201.266 24.5239 200.874 24.8599C200.501 25.1959 200.314 25.6159 200.314 26.1199C200.314 26.6799 200.529 27.1279 200.958 27.4639C201.406 27.7813 202.013 27.9399 202.778 27.9399C203.506 27.9399 204.16 27.7719 204.738 27.4359C205.317 27.0813 205.737 26.5679 205.998 25.8959L206.67 27.9119C206.353 28.8826 205.774 29.6199 204.934 30.1239C204.094 30.6279 203.012 30.8799 201.686 30.8799ZM217.652 27.5759L217.764 22.2559L224.792 15.5919H230L223.252 22.4519L220.984 24.2999L217.652 27.5759ZM214.04 30.6559V9.87994H218.408V30.6559H214.04ZM225.268 30.6559L220.172 24.3279L222.916 20.9399L230.56 30.6559H225.268ZM239.091 30.8799C237.374 30.8799 235.862 30.5439 234.555 29.8719C233.267 29.1999 232.268 28.2853 231.559 27.1279C230.85 25.9519 230.495 24.6173 230.495 23.1239C230.495 21.6119 230.84 20.2773 231.531 19.1199C232.24 17.9439 233.202 17.0293 234.415 16.3759C235.628 15.7039 237 15.3679 238.531 15.3679C240.006 15.3679 241.331 15.6853 242.507 16.3199C243.702 16.9359 244.644 17.8319 245.335 19.0079C246.026 20.1653 246.371 21.5559 246.371 23.1799C246.371 23.3479 246.362 23.5439 246.343 23.7679C246.324 23.9733 246.306 24.1693 246.287 24.3559H234.051V21.8079H243.991L242.311 22.5639C242.311 21.7799 242.152 21.0986 241.835 20.5199C241.518 19.9413 241.079 19.4933 240.519 19.1759C239.959 18.8399 239.306 18.6719 238.559 18.6719C237.812 18.6719 237.15 18.8399 236.571 19.1759C236.011 19.4933 235.572 19.9506 235.255 20.5479C234.938 21.1266 234.779 21.8173 234.779 22.6199V23.2919C234.779 24.1133 234.956 24.8413 235.311 25.4759C235.684 26.0919 236.198 26.5679 236.851 26.9039C237.523 27.2213 238.307 27.3799 239.203 27.3799C240.006 27.3799 240.706 27.2586 241.303 27.0159C241.919 26.7733 242.479 26.4093 242.983 25.9239L245.307 28.4439C244.616 29.2279 243.748 29.8346 242.703 30.2639C241.658 30.6746 240.454 30.8799 239.091 30.8799ZM248.999 30.6559V15.5919H253.171V19.8479L252.583 18.6159C253.031 17.5519 253.75 16.7493 254.739 16.2079C255.728 15.6479 256.932 15.3679 258.351 15.3679V19.3999C258.164 19.3813 257.996 19.3719 257.847 19.3719C257.698 19.3533 257.539 19.3439 257.371 19.3439C256.176 19.3439 255.206 19.6893 254.459 20.3799C253.731 21.0519 253.367 22.1066 253.367 23.5439V30.6559H248.999ZM260.858 30.7839C260.431 30.7839 260.063 30.6399 259.754 30.3519C259.455 30.0533 259.306 29.6746 259.306 29.2159C259.306 28.7573 259.455 28.3893 259.754 28.1119C260.063 27.8239 260.431 27.6799 260.858 27.6799C261.295 27.6799 261.663 27.8239 261.962 28.1119C262.26 28.3893 262.41 28.7573 262.41 29.2159C262.41 29.6746 262.26 30.0533 261.962 30.3519C261.663 30.6399 261.295 30.7839 260.858 30.7839ZM263.941 30.6559V22.0479H266.437V30.6559H263.941ZM265.189 20.8479C264.731 20.8479 264.357 20.7146 264.069 20.4479C263.781 20.1813 263.637 19.8506 263.637 19.4559C263.637 19.0613 263.781 18.7306 264.069 18.4639C264.357 18.1973 264.731 18.0639 265.189 18.0639C265.648 18.0639 266.021 18.1919 266.309 18.4479C266.597 18.6933 266.741 19.0133 266.741 19.4079C266.741 19.8239 266.597 20.1706 266.309 20.4479C266.032 20.7146 265.659 20.8479 265.189 20.8479ZM272.69 30.7839C271.772 30.7839 270.956 30.5919 270.242 30.2079C269.538 29.8239 268.978 29.3013 268.562 28.6399C268.156 27.9679 267.954 27.2053 267.954 26.3519C267.954 25.4879 268.156 24.7253 268.562 24.0639C268.978 23.3919 269.538 22.8693 270.242 22.4959C270.956 22.1119 271.772 21.9199 272.69 21.9199C273.596 21.9199 274.407 22.1119 275.122 22.4959C275.836 22.8693 276.396 23.3866 276.802 24.0479C277.207 24.7093 277.41 25.4773 277.41 26.3519C277.41 27.2053 277.207 27.9679 276.802 28.6399C276.396 29.3013 275.836 29.8239 275.122 30.2079C274.407 30.5919 273.596 30.7839 272.69 30.7839ZM272.69 28.7359C273.106 28.7359 273.479 28.6399 273.81 28.4479C274.14 28.2559 274.402 27.9839 274.594 27.6319C274.786 27.2693 274.882 26.8426 274.882 26.3519C274.882 25.8506 274.786 25.4239 274.594 25.0719C274.402 24.7199 274.14 24.4479 273.81 24.2559C273.479 24.0639 273.106 23.9679 272.69 23.9679C272.274 23.9679 271.9 24.0639 271.57 24.2559C271.239 24.4479 270.972 24.7199 270.77 25.0719C270.578 25.4239 270.482 25.8506 270.482 26.3519C270.482 26.8426 270.578 27.2693 270.77 27.6319C270.972 27.9839 271.239 28.2559 271.57 28.4479C271.9 28.6399 272.274 28.7359 272.69 28.7359Z" fill="white"/>
</svg>
