<svg width="42" height="42" viewBox="0 0 42 42" fill="none" xmlns="http://www.w3.org/2000/svg">
<path d="M20.656 4.47524C29.7859 4.47524 37.1807 11.8701 37.1807 21.0001C37.1807 30.13 29.7859 37.5248 20.656 37.5248C11.526 37.5248 4.13119 30.13 4.13119 21.0001C4.13119 11.8701 11.526 4.47524 20.656 4.47524ZM20.656 0.344055C9.25387 0.344055 0 9.59793 0 21.0001C0 32.4021 9.25387 41.656 20.656 41.656C32.058 41.656 41.3119 32.4021 41.3119 21.0001C41.3119 9.59793 32.058 0.344055 20.656 0.344055Z" fill="#1E1E1E"/>
<path d="M15.9877 11.5808L30.4055 20.9173L15.9877 30.2538V11.5808Z" fill="#864AF9"/>
</svg>
