<svg width="214" height="42" viewBox="0 0 214 42" fill="none" xmlns="http://www.w3.org/2000/svg">
<g clip-path="url(#clip0_116_24)">
<path d="M21.456 4.13119C30.5859 4.13119 37.9807 11.526 37.9807 20.656C37.9807 29.7859 30.5859 37.1807 21.456 37.1807C12.326 37.1807 4.93118 29.7859 4.93118 20.656C4.93118 11.526 12.326 4.13119 21.456 4.13119ZM21.456 0C10.0539 0 0.799988 9.25387 0.799988 20.656C0.799988 32.058 10.0539 41.3119 21.456 41.3119C32.858 41.3119 42.1119 32.058 42.1119 20.656C42.1119 9.25387 32.858 0 21.456 0Z" fill="white"/>
<path d="M16.7878 11.2368L31.2056 20.5733L16.7878 29.9098V11.2368Z" fill="#864AF9"/>
<path d="M58.5679 30.8759L50.1119 11.2759H55.0119L62.4039 28.6359H59.5199L67.0239 11.2759H71.5319L63.0479 30.8759H58.5679ZM79.3284 31.2119C77.7604 31.2119 76.2577 31.0066 74.8204 30.5959C73.383 30.1666 72.2257 29.6159 71.3484 28.9439L72.8884 25.5279C73.7284 26.1253 74.7177 26.6199 75.8564 27.0119C77.0137 27.3853 78.1804 27.5719 79.3564 27.5719C80.2524 27.5719 80.971 27.4879 81.5124 27.3199C82.0724 27.1333 82.483 26.8813 82.7444 26.5639C83.0057 26.2466 83.1364 25.8826 83.1364 25.4719C83.1364 24.9493 82.931 24.5386 82.5204 24.2399C82.1097 23.9226 81.5684 23.6706 80.8964 23.4839C80.2244 23.2786 79.4777 23.0919 78.6564 22.9239C77.8537 22.7373 77.0417 22.5133 76.2204 22.2519C75.4177 21.9906 74.6804 21.6546 74.0084 21.2439C73.3364 20.8333 72.7857 20.2919 72.3564 19.6199C71.9457 18.9479 71.7404 18.0893 71.7404 17.0439C71.7404 15.9239 72.039 14.9066 72.6364 13.9919C73.2524 13.0586 74.167 12.3213 75.3804 11.7799C76.6124 11.2199 78.1524 10.9399 80.0004 10.9399C81.2324 10.9399 82.4457 11.0893 83.6404 11.3879C84.835 11.6679 85.8897 12.0973 86.8044 12.6759L85.4044 16.1199C84.4897 15.5973 83.575 15.2146 82.6604 14.9719C81.7457 14.7106 80.8497 14.5799 79.9724 14.5799C79.095 14.5799 78.3764 14.6826 77.8164 14.8879C77.2564 15.0933 76.855 15.3639 76.6124 15.6999C76.3697 16.0173 76.2484 16.3906 76.2484 16.8199C76.2484 17.3239 76.4537 17.7346 76.8644 18.0519C77.275 18.3506 77.8164 18.5933 78.4884 18.7799C79.1604 18.9666 79.8977 19.1533 80.7004 19.3399C81.5217 19.5266 82.3337 19.7413 83.1364 19.9839C83.9577 20.2266 84.7044 20.5533 85.3764 20.9639C86.0484 21.3746 86.5897 21.9159 87.0004 22.5879C87.4297 23.2599 87.6444 24.1093 87.6444 25.1359C87.6444 26.2373 87.3364 27.2453 86.7204 28.1599C86.1044 29.0746 85.1804 29.8119 83.9484 30.3719C82.735 30.9319 81.195 31.2119 79.3284 31.2119ZM90.4638 30.8759V11.2759H94.9998V27.1799H104.828V30.8759H90.4638Z" fill="#864AF9"/>
<path d="M107.082 30.8761V11.2761H110.834L119.178 25.1081H117.19L125.394 11.2761H129.118L129.174 30.8761H124.918L124.89 17.8001H125.674L119.122 28.8041H117.078L110.386 17.8001H111.338V30.8761H107.082ZM142.476 30.8761V27.9361L142.196 27.2921V22.0281C142.196 21.0948 141.907 20.3668 141.328 19.8441C140.768 19.3215 139.9 19.0601 138.724 19.0601C137.922 19.0601 137.128 19.1908 136.344 19.4521C135.579 19.6948 134.926 20.0308 134.384 20.4601L132.816 17.4081C133.638 16.8295 134.627 16.3815 135.784 16.0641C136.942 15.7468 138.118 15.5881 139.312 15.5881C141.608 15.5881 143.391 16.1295 144.66 17.2121C145.93 18.2948 146.564 19.9841 146.564 22.2801V30.8761H142.476ZM137.884 31.1001C136.708 31.1001 135.7 30.9041 134.86 30.5121C134.02 30.1015 133.376 29.5508 132.928 28.8601C132.48 28.1695 132.256 27.3948 132.256 26.5361C132.256 25.6401 132.471 24.8561 132.9 24.1841C133.348 23.5121 134.048 22.9895 135 22.6161C135.952 22.2241 137.194 22.0281 138.724 22.0281H142.728V24.5761H139.2C138.174 24.5761 137.464 24.7441 137.072 25.0801C136.699 25.4161 136.512 25.8361 136.512 26.3401C136.512 26.9001 136.727 27.3481 137.156 27.6841C137.604 28.0015 138.211 28.1601 138.976 28.1601C139.704 28.1601 140.358 27.9921 140.936 27.6561C141.515 27.3015 141.935 26.7881 142.196 26.1161L142.868 28.1321C142.551 29.1028 141.972 29.8401 141.132 30.3441C140.292 30.8481 139.21 31.1001 137.884 31.1001ZM153.85 27.7961L153.962 22.4761L160.99 15.8121H166.198L159.45 22.6721L157.182 24.5201L153.85 27.7961ZM150.238 30.8761V10.1001H154.606V30.8761H150.238ZM161.466 30.8761L156.37 24.5481L159.114 21.1601L166.758 30.8761H161.466ZM175.289 31.1001C173.572 31.1001 172.06 30.7641 170.753 30.0921C169.465 29.4201 168.467 28.5055 167.757 27.3481C167.048 26.1721 166.693 24.8375 166.693 23.3441C166.693 21.8321 167.039 20.4975 167.729 19.3401C168.439 18.1641 169.4 17.2495 170.613 16.5961C171.827 15.9241 173.199 15.5881 174.729 15.5881C176.204 15.5881 177.529 15.9055 178.705 16.5401C179.9 17.1561 180.843 18.0521 181.533 19.2281C182.224 20.3855 182.569 21.7761 182.569 23.4001C182.569 23.5681 182.56 23.7641 182.541 23.9881C182.523 24.1935 182.504 24.3895 182.485 24.5761H170.249V22.0281H180.189L178.509 22.7841C178.509 22.0001 178.351 21.3188 178.033 20.7401C177.716 20.1615 177.277 19.7135 176.717 19.3961C176.157 19.0601 175.504 18.8921 174.757 18.8921C174.011 18.8921 173.348 19.0601 172.769 19.3961C172.209 19.7135 171.771 20.1708 171.453 20.7681C171.136 21.3468 170.977 22.0375 170.977 22.8401V23.5121C170.977 24.3335 171.155 25.0615 171.509 25.6961C171.883 26.3121 172.396 26.7881 173.049 27.1241C173.721 27.4415 174.505 27.6001 175.401 27.6001C176.204 27.6001 176.904 27.4788 177.501 27.2361C178.117 26.9935 178.677 26.6295 179.181 26.1441L181.505 28.6641C180.815 29.4481 179.947 30.0548 178.901 30.4841C177.856 30.8948 176.652 31.1001 175.289 31.1001ZM185.197 30.8761V15.8121H189.369V20.0681L188.781 18.8361C189.229 17.7721 189.948 16.9695 190.937 16.4281C191.927 15.8681 193.131 15.5881 194.549 15.5881V19.6201C194.363 19.6015 194.195 19.5921 194.045 19.5921C193.896 19.5735 193.737 19.5641 193.569 19.5641C192.375 19.5641 191.404 19.9095 190.657 20.6001C189.929 21.2721 189.565 22.3268 189.565 23.7641V30.8761H185.197ZM197.056 31.0041C196.629 31.0041 196.261 30.8601 195.952 30.5721C195.653 30.2735 195.504 29.8948 195.504 29.4361C195.504 28.9775 195.653 28.6095 195.952 28.3321C196.261 28.0441 196.629 27.9001 197.056 27.9001C197.493 27.9001 197.861 28.0441 198.16 28.3321C198.458 28.6095 198.608 28.9775 198.608 29.4361C198.608 29.8948 198.458 30.2735 198.16 30.5721C197.861 30.8601 197.493 31.0041 197.056 31.0041ZM200.139 30.8761V22.2681H202.635V30.8761H200.139ZM201.387 21.0681C200.929 21.0681 200.555 20.9348 200.267 20.6681C199.979 20.4015 199.835 20.0708 199.835 19.6761C199.835 19.2815 199.979 18.9508 200.267 18.6841C200.555 18.4175 200.929 18.2841 201.387 18.2841C201.846 18.2841 202.219 18.4121 202.507 18.6681C202.795 18.9135 202.939 19.2335 202.939 19.6281C202.939 20.0441 202.795 20.3908 202.507 20.6681C202.23 20.9348 201.857 21.0681 201.387 21.0681ZM208.888 31.0041C207.97 31.0041 207.154 30.8121 206.44 30.4281C205.736 30.0441 205.176 29.5215 204.76 28.8601C204.354 28.1881 204.152 27.4255 204.152 26.5721C204.152 25.7081 204.354 24.9455 204.76 24.2841C205.176 23.6121 205.736 23.0895 206.44 22.7161C207.154 22.3321 207.97 22.1401 208.888 22.1401C209.794 22.1401 210.605 22.3321 211.32 22.7161C212.034 23.0895 212.594 23.6068 213 24.2681C213.405 24.9295 213.608 25.6975 213.608 26.5721C213.608 27.4255 213.405 28.1881 213 28.8601C212.594 29.5215 212.034 30.0441 211.32 30.4281C210.605 30.8121 209.794 31.0041 208.888 31.0041ZM208.888 28.9561C209.304 28.9561 209.677 28.8601 210.008 28.6681C210.338 28.4761 210.6 28.2041 210.792 27.8521C210.984 27.4895 211.08 27.0628 211.08 26.5721C211.08 26.0708 210.984 25.6441 210.792 25.2921C210.6 24.9401 210.338 24.6681 210.008 24.4761C209.677 24.2841 209.304 24.1881 208.888 24.1881C208.472 24.1881 208.098 24.2841 207.768 24.4761C207.437 24.6681 207.17 24.9401 206.968 25.2921C206.776 25.6441 206.68 26.0708 206.68 26.5721C206.68 27.0628 206.776 27.4895 206.968 27.8521C207.17 28.2041 207.437 28.4761 207.768 28.6681C208.098 28.8601 208.472 28.9561 208.888 28.9561Z" fill="white"/>
</g>
<defs>
<clipPath id="clip0_116_24">
<rect width="212.808" height="41.3119" fill="white" transform="translate(0.799988)"/>
</clipPath>
</defs>
</svg>
