<svg width="214" height="42" viewBox="0 0 214 42" fill="none" xmlns="http://www.w3.org/2000/svg">
<g clip-path="url(#clip0_138_1810)">
<path d="M21.2519 4.13119C30.3818 4.13119 37.7766 11.526 37.7766 20.656C37.7766 29.7859 30.3818 37.1807 21.2519 37.1807C12.1219 37.1807 4.72714 29.7859 4.72714 20.656C4.72714 11.526 12.1219 4.13119 21.2519 4.13119ZM21.2519 0C9.84982 0 0.595947 9.25387 0.595947 20.656C0.595947 32.058 9.84982 41.3119 21.2519 41.3119C32.6539 41.3119 41.9078 32.058 41.9078 20.656C41.9078 9.25387 32.6539 0 21.2519 0Z" fill="#1E1E1E"/>
<path d="M16.5837 11.2368L31.0015 20.5733L16.5837 29.9098V11.2368Z" fill="#864AF9"/>
<path d="M58.364 30.8759L49.908 11.2759H54.808L62.2 28.6359H59.316L66.82 11.2759H71.328L62.844 30.8759H58.364ZM79.1245 31.2119C77.5565 31.2119 76.0538 31.0066 74.6165 30.5959C73.1791 30.1666 72.0218 29.6159 71.1445 28.9439L72.6845 25.5279C73.5245 26.1253 74.5138 26.6199 75.6525 27.0119C76.8098 27.3853 77.9765 27.5719 79.1525 27.5719C80.0485 27.5719 80.7671 27.4879 81.3085 27.3199C81.8685 27.1333 82.2791 26.8813 82.5405 26.5639C82.8018 26.2466 82.9325 25.8826 82.9325 25.4719C82.9325 24.9493 82.7271 24.5386 82.3165 24.2399C81.9058 23.9226 81.3645 23.6706 80.6925 23.4839C80.0205 23.2786 79.2738 23.0919 78.4525 22.9239C77.6498 22.7373 76.8378 22.5133 76.0165 22.2519C75.2138 21.9906 74.4765 21.6546 73.8045 21.2439C73.1325 20.8333 72.5818 20.2919 72.1525 19.6199C71.7418 18.9479 71.5365 18.0893 71.5365 17.0439C71.5365 15.9239 71.8351 14.9066 72.4325 13.9919C73.0485 13.0586 73.9631 12.3213 75.1765 11.7799C76.4085 11.2199 77.9485 10.9399 79.7965 10.9399C81.0285 10.9399 82.2418 11.0893 83.4365 11.3879C84.6311 11.6679 85.6858 12.0973 86.6005 12.6759L85.2005 16.1199C84.2858 15.5973 83.3711 15.2146 82.4565 14.9719C81.5418 14.7106 80.6458 14.5799 79.7685 14.5799C78.8911 14.5799 78.1725 14.6826 77.6125 14.8879C77.0525 15.0933 76.6511 15.3639 76.4085 15.6999C76.1658 16.0173 76.0445 16.3906 76.0445 16.8199C76.0445 17.3239 76.2498 17.7346 76.6605 18.0519C77.0711 18.3506 77.6125 18.5933 78.2845 18.7799C78.9565 18.9666 79.6938 19.1533 80.4965 19.3399C81.3178 19.5266 82.1298 19.7413 82.9325 19.9839C83.7538 20.2266 84.5005 20.5533 85.1725 20.9639C85.8445 21.3746 86.3858 21.9159 86.7965 22.5879C87.2258 23.2599 87.4405 24.1093 87.4405 25.1359C87.4405 26.2373 87.1325 27.2453 86.5165 28.1599C85.9005 29.0746 84.9765 29.8119 83.7445 30.3719C82.5311 30.9319 80.9911 31.2119 79.1245 31.2119ZM90.2599 30.8759V11.2759H94.7959V27.1799H104.624V30.8759H90.2599Z" fill="#864AF9"/>
<path d="M106.878 30.8758V11.2758H110.63L118.974 25.1078H116.986L125.19 11.2758H128.914L128.97 30.8758H124.714L124.686 17.7998H125.47L118.918 28.8038H116.874L110.182 17.7998H111.134V30.8758H106.878ZM142.272 30.8758V27.9358L141.992 27.2918V22.0278C141.992 21.0945 141.703 20.3665 141.124 19.8438C140.564 19.3212 139.696 19.0598 138.52 19.0598C137.718 19.0598 136.924 19.1905 136.14 19.4518C135.375 19.6945 134.722 20.0305 134.18 20.4598L132.612 17.4078C133.434 16.8292 134.423 16.3812 135.58 16.0638C136.738 15.7465 137.914 15.5878 139.108 15.5878C141.404 15.5878 143.187 16.1292 144.456 17.2118C145.726 18.2945 146.36 19.9838 146.36 22.2798V30.8758H142.272ZM137.68 31.0998C136.504 31.0998 135.496 30.9038 134.656 30.5118C133.816 30.1012 133.172 29.5505 132.724 28.8598C132.276 28.1692 132.052 27.3945 132.052 26.5358C132.052 25.6398 132.267 24.8558 132.696 24.1838C133.144 23.5118 133.844 22.9892 134.796 22.6158C135.748 22.2238 136.99 22.0278 138.52 22.0278H142.524V24.5758H138.996C137.97 24.5758 137.26 24.7438 136.868 25.0798C136.495 25.4158 136.308 25.8358 136.308 26.3398C136.308 26.8998 136.523 27.3478 136.952 27.6838C137.4 28.0012 138.007 28.1598 138.772 28.1598C139.5 28.1598 140.154 27.9918 140.732 27.6558C141.311 27.3012 141.731 26.7878 141.992 26.1158L142.664 28.1318C142.347 29.1025 141.768 29.8398 140.928 30.3438C140.088 30.8478 139.006 31.0998 137.68 31.0998ZM153.646 27.7958L153.758 22.4758L160.786 15.8118H165.994L159.246 22.6718L156.978 24.5198L153.646 27.7958ZM150.034 30.8758V10.0999H154.402V30.8758H150.034ZM161.262 30.8758L156.166 24.5478L158.91 21.1598L166.554 30.8758H161.262ZM175.085 31.0998C173.368 31.0998 171.856 30.7638 170.549 30.0918C169.261 29.4198 168.263 28.5052 167.553 27.3478C166.844 26.1718 166.489 24.8372 166.489 23.3438C166.489 21.8318 166.835 20.4972 167.525 19.3398C168.235 18.1638 169.196 17.2492 170.409 16.5958C171.623 15.9238 172.995 15.5878 174.525 15.5878C176 15.5878 177.325 15.9052 178.501 16.5398C179.696 17.1558 180.639 18.0518 181.329 19.2278C182.02 20.3852 182.365 21.7758 182.365 23.3998C182.365 23.5678 182.356 23.7638 182.337 23.9878C182.319 24.1932 182.3 24.3892 182.281 24.5758H170.045V22.0278H179.985L178.305 22.7838C178.305 21.9998 178.147 21.3185 177.829 20.7398C177.512 20.1612 177.073 19.7132 176.513 19.3958C175.953 19.0598 175.3 18.8918 174.553 18.8918C173.807 18.8918 173.144 19.0598 172.565 19.3958C172.005 19.7132 171.567 20.1705 171.249 20.7678C170.932 21.3465 170.773 22.0372 170.773 22.8398V23.5118C170.773 24.3332 170.951 25.0612 171.305 25.6958C171.679 26.3118 172.192 26.7878 172.845 27.1238C173.517 27.4412 174.301 27.5998 175.197 27.5998C176 27.5998 176.7 27.4785 177.297 27.2358C177.913 26.9932 178.473 26.6292 178.977 26.1438L181.301 28.6638C180.611 29.4478 179.743 30.0545 178.697 30.4838C177.652 30.8945 176.448 31.0998 175.085 31.0998ZM184.993 30.8758V15.8118H189.165V20.0678L188.577 18.8358C189.025 17.7718 189.744 16.9692 190.733 16.4278C191.723 15.8678 192.927 15.5878 194.345 15.5878V19.6198C194.159 19.6012 193.991 19.5918 193.841 19.5918C193.692 19.5732 193.533 19.5638 193.365 19.5638C192.171 19.5638 191.2 19.9092 190.453 20.5998C189.725 21.2718 189.361 22.3265 189.361 23.7638V30.8758H184.993ZM196.852 31.0038C196.425 31.0038 196.057 30.8598 195.748 30.5718C195.449 30.2732 195.3 29.8945 195.3 29.4358C195.3 28.9772 195.449 28.6092 195.748 28.3318C196.057 28.0438 196.425 27.8998 196.852 27.8998C197.289 27.8998 197.657 28.0438 197.956 28.3318C198.254 28.6092 198.404 28.9772 198.404 29.4358C198.404 29.8945 198.254 30.2732 197.956 30.5718C197.657 30.8598 197.289 31.0038 196.852 31.0038ZM199.935 30.8758V22.2678H202.431V30.8758H199.935ZM201.183 21.0678C200.725 21.0678 200.351 20.9345 200.063 20.6678C199.775 20.4012 199.631 20.0705 199.631 19.6758C199.631 19.2812 199.775 18.9505 200.063 18.6838C200.351 18.4172 200.725 18.2838 201.183 18.2838C201.642 18.2838 202.015 18.4118 202.303 18.6678C202.591 18.9132 202.735 19.2332 202.735 19.6278C202.735 20.0438 202.591 20.3905 202.303 20.6678C202.026 20.9345 201.653 21.0678 201.183 21.0678ZM208.684 31.0038C207.766 31.0038 206.95 30.8118 206.236 30.4278C205.532 30.0438 204.972 29.5212 204.556 28.8598C204.15 28.1878 203.948 27.4252 203.948 26.5718C203.948 25.7078 204.15 24.9452 204.556 24.2838C204.972 23.6118 205.532 23.0892 206.236 22.7158C206.95 22.3318 207.766 22.1398 208.684 22.1398C209.59 22.1398 210.401 22.3318 211.116 22.7158C211.83 23.0892 212.39 23.6065 212.796 24.2678C213.201 24.9292 213.404 25.6972 213.404 26.5718C213.404 27.4252 213.201 28.1878 212.796 28.8598C212.39 29.5212 211.83 30.0438 211.116 30.4278C210.401 30.8118 209.59 31.0038 208.684 31.0038ZM208.684 28.9558C209.1 28.9558 209.473 28.8598 209.804 28.6678C210.134 28.4758 210.396 28.2038 210.588 27.8518C210.78 27.4892 210.876 27.0625 210.876 26.5718C210.876 26.0705 210.78 25.6438 210.588 25.2918C210.396 24.9398 210.134 24.6678 209.804 24.4758C209.473 24.2838 209.1 24.1878 208.684 24.1878C208.268 24.1878 207.894 24.2838 207.564 24.4758C207.233 24.6678 206.966 24.9398 206.764 25.2918C206.572 25.6438 206.476 26.0705 206.476 26.5718C206.476 27.0625 206.572 27.4892 206.764 27.8518C206.966 28.2038 207.233 28.4758 207.564 28.6678C207.894 28.8598 208.268 28.9558 208.684 28.9558Z" fill="#1E1E1E"/>
</g>
<defs>
<clipPath id="clip0_138_1810">
<rect width="212.808" height="41.3119" fill="white" transform="translate(0.595947)"/>
</clipPath>
</defs>
</svg>
